<svg xmlns="http://www.w3.org/2000/svg" width="24" height="24" viewBox="0 0 24 24"><path fill="white" d="M20.52 3.48A11.94 11.94 0 0 0 12 .5 11.94 11.94 0 0 0 3.48 3.48 12 12 0 0 0 .5 12c0 2.11.55 4.17 1.6 5.98L.44 22l3.78-1.01A11.94 11.94 0 0 0 12 23.5 11.94 11.94 0 0 0 20.52 20.52 12 12 0 0 0 23.5 12 11.94 11.94 0 0 0 20.52 3.48zM12 21.5a9.47 9.47 0 0 1-5.1-1.43l-.36-.22-2.25.6.6-2.19-.22-.36A9.47 9.47 0 1 1 12 21.5z"/><path fill="white" d="M17.24 14.37c-.27-.14-1.6-.79-1.85-.87-.25-.08-.43-.14-.61.14-.18.27-.7.87-.86 1.05-.16.18-.33.2-.6.07-.27-.14-1.13-.42-2.15-1.33-.79-.7-1.33-1.56-1.48-1.83-.16-.27-.02-.42.12-.56.12-.12.27-.33.4-.5.13-.17.18-.27.27-.45.09-.18.04-.33-.02-.46-.07-.12-.61-1.47-.84-2.01-.22-.53-.45-.46-.62-.47-.16-.01-.35-.01-.54-.01-.18 0-.46.07-.7.33-.25.27-.96.94-.96 2.3s.98 2.67 1.12 2.86c.14.18 1.93 2.95 4.67 4.13 1.34.58 1.9.62 2.58.52.41-.06 1.6-.65 1.83-1.28.23-.63.23-1.17.16-1.28-.07-.11-.26-.18-.53-.31z"/></svg>